<svg width="34" height="32" viewBox="0 0 34 32" fill="none" xmlns="http://www.w3.org/2000/svg">
<path d="M27.9235 6.61759C23.5071 3.4048 17.6372 2.6735 12.7611 3.64246C7.30565 -2.15105 1.19235 0.513736 0 1.2798C0 1.2798 4.19532 5.20493 3.5139 8.64273C-1.45298 14.2175 0.908183 20.4244 3.5139 23.3553C4.19532 26.7931 0 30.7182 0 30.7182C1.18087 31.4868 7.27752 34.1434 12.7611 28.3796C17.6263 29.3422 23.4962 28.6173 27.9235 25.3988C34.7699 20.5862 34.7923 11.4548 27.9235 6.61696V6.61759ZM16.8881 25.3678C15.1807 25.3732 13.4801 25.1316 11.8299 24.6492L10.695 25.8558C10.0646 26.5289 9.35868 27.1107 8.59444 27.587C7.66723 28.101 6.65995 28.4169 5.62591 28.518C5.68332 28.4055 5.73384 28.293 5.78493 28.1868C6.92045 25.8692 7.22662 23.79 6.70345 21.949C4.83599 20.3302 3.71827 18.2615 3.71827 15.9993C3.71827 10.8164 9.61629 6.61759 16.8881 6.61759C24.1598 6.61759 30.0579 10.8164 30.0579 15.9993C30.0579 21.1823 24.1598 25.3678 16.8881 25.3678ZM10.5698 18.2305C10.0485 18.2386 9.54542 18.0189 9.17095 17.6194C8.79648 17.2199 8.58112 16.6732 8.57205 16.0992C8.53187 13.2303 12.466 13.1677 12.5056 16.0303V16.0625C12.508 16.345 12.4599 16.6252 12.3639 16.8871C12.2679 17.149 12.1259 17.3875 11.9461 17.589C11.7663 17.7904 11.5522 17.9509 11.3161 18.0612C11.0799 18.1715 10.8263 18.2295 10.5698 18.2318V18.2305ZM14.8048 16.0992C14.7594 13.2303 18.6935 13.1614 18.7389 16.024V16.0625C18.7613 18.9119 14.8501 18.9429 14.8048 16.0992ZM23.0358 18.2305C22.5144 18.2386 22.0113 18.0189 21.6367 17.6194C21.2622 17.2199 21.0467 16.6733 21.0375 16.0992C20.9979 13.2303 24.932 13.1677 24.9716 16.0303V16.0625C24.9748 16.3452 24.9273 16.6258 24.8316 16.8881C24.7359 17.1505 24.5939 17.3893 24.414 17.591C24.234 17.7927 24.0196 17.9531 23.7831 18.0631C23.5465 18.1731 23.2926 18.2304 23.0358 18.2318V18.2305Z" fill="#FC732F"/>
</svg>
