<svg width="223" height="28" viewBox="0 0 223 28" fill="none" xmlns="http://www.w3.org/2000/svg">
<path d="M19.3151 20.7873V26.5833H0.487084V0.807335H7.21908V20.7873H19.3151ZM34.4058 0.159335C38.4138 0.159335 41.6058 1.57533 43.9818 4.40733C46.0218 6.87933 47.0418 9.97534 47.0418 13.6953C47.0418 17.9913 45.7218 21.3993 43.0818 23.9193C40.7778 26.1273 37.8858 27.2313 34.4058 27.2313C30.3258 27.2313 27.0858 25.8153 24.6858 22.9833C22.6218 20.5353 21.5898 17.4393 21.5898 13.6953C21.5898 9.39934 22.8618 6.03934 25.4058 3.61534C27.8538 1.31134 30.8538 0.159335 34.4058 0.159335ZM34.3698 5.70333C32.4258 5.70333 30.9138 6.51933 29.8338 8.15134C28.8978 9.54333 28.4298 11.3793 28.4298 13.6593C28.4298 16.3233 29.0298 18.3753 30.2298 19.8153C31.2858 21.0633 32.6778 21.6873 34.4058 21.6873C36.2298 21.6873 37.6578 20.9793 38.6898 19.5633C39.7218 18.1233 40.2378 16.1193 40.2378 13.5513C40.2378 10.9353 39.6378 8.93133 38.4378 7.53933C37.4058 6.31533 36.0498 5.70333 34.3698 5.70333ZM74.3782 12.5793V26.5833H70.0582C69.8182 25.4793 69.6982 24.6873 69.6982 24.2073C69.6982 24.1593 69.6982 24.0993 69.6982 24.0273C69.6982 23.9313 69.6982 23.8473 69.6982 23.7753C67.8742 26.0793 65.2942 27.2313 61.9582 27.2313C57.9982 27.2313 54.8662 25.8273 52.5622 23.0193C50.5702 20.5713 49.5742 17.4873 49.5742 13.7673C49.5742 9.44734 50.9422 6.01534 53.6782 3.47134C56.0542 1.26333 59.0422 0.159335 62.6422 0.159335C65.9062 0.159335 68.6182 1.14334 70.7782 3.11134C72.6502 4.81534 73.7182 6.96333 73.9822 9.55534H67.4662C66.8902 6.98733 65.2462 5.70333 62.5342 5.70333C60.5662 5.70333 59.0542 6.41133 57.9982 7.82733C56.9422 9.21933 56.4142 11.2233 56.4142 13.8393C56.4142 19.0713 58.5502 21.6873 62.8222 21.6873C65.9662 21.6873 67.7662 20.2473 68.2222 17.3673H63.5422V12.5793H74.3782ZM90.4449 0.159335C94.4529 0.159335 97.6449 1.57533 100.021 4.40733C102.061 6.87933 103.081 9.97534 103.081 13.6953C103.081 17.9913 101.761 21.3993 99.1209 23.9193C96.8169 26.1273 93.9249 27.2313 90.4449 27.2313C86.3649 27.2313 83.1249 25.8153 80.7249 22.9833C78.6609 20.5353 77.6289 17.4393 77.6289 13.6953C77.6289 9.39934 78.9009 6.03934 81.4449 3.61534C83.8929 1.31134 86.8929 0.159335 90.4449 0.159335ZM90.4089 5.70333C88.4649 5.70333 86.9529 6.51933 85.8729 8.15134C84.9369 9.54333 84.4689 11.3793 84.4689 13.6593C84.4689 16.3233 85.0689 18.3753 86.2689 19.8153C87.3249 21.0633 88.7169 21.6873 90.4449 21.6873C92.2689 21.6873 93.6969 20.9793 94.7289 19.5633C95.7609 18.1233 96.2769 16.1193 96.2769 13.5513C96.2769 10.9353 95.6769 8.93133 94.4769 7.53933C93.4449 6.31533 92.0889 5.70333 90.4089 5.70333Z" fill="white"/>
<path d="M113.461 0.807335V26.5833H106.729V0.807335H113.461ZM118.19 0.807335H128.81C132.218 0.807335 134.678 1.32333 136.19 2.35533C138.542 3.93933 139.718 6.33933 139.718 9.55534C139.718 12.1713 138.83 14.2833 137.054 15.8913C135.518 17.2833 133.25 17.9793 130.25 17.9793H124.922V26.5833H118.19V0.807335ZM124.922 6.35133V12.6873H129.35C131.894 12.6873 133.166 11.6313 133.166 9.51933C133.166 7.45534 131.81 6.41134 129.098 6.38733L124.922 6.35133ZM162.774 8.54733H156.366C156.27 6.43533 154.89 5.37933 152.226 5.37933C149.898 5.37933 148.734 6.13533 148.734 7.64734C148.734 8.34334 149.046 8.84734 149.67 9.15933C150.198 9.42334 151.89 9.91534 154.746 10.6353C157.458 11.3313 159.426 12.0633 160.65 12.8313C162.762 14.1273 163.818 16.0713 163.818 18.6633C163.818 21.4953 162.702 23.6793 160.47 25.2153C158.526 26.5593 155.97 27.2313 152.802 27.2313C148.962 27.2313 146.034 26.3073 144.018 24.4593C142.242 22.8513 141.33 20.6673 141.282 17.9073H148.05C148.194 20.6433 149.862 22.0113 153.054 22.0113C155.67 22.0113 156.978 21.1353 156.978 19.3833C156.978 18.5673 156.63 17.9673 155.934 17.5833C155.262 17.1753 153.57 16.5873 150.858 15.8193C147.57 14.8833 145.362 13.9353 144.234 12.9753C142.914 11.8473 142.254 10.2153 142.254 8.07934C142.254 5.53534 143.31 3.53134 145.422 2.06733C147.27 0.795335 149.634 0.159335 152.514 0.159335C155.946 0.159335 158.562 0.987335 160.362 2.64334C161.922 4.08334 162.726 6.05133 162.774 8.54733ZM189.335 0.807335V16.1433C189.335 19.5753 188.627 22.1433 187.211 23.8473C185.339 26.1033 182.315 27.2313 178.139 27.2313C173.699 27.2313 170.543 25.9593 168.671 23.4153C167.495 21.8073 166.907 19.3593 166.907 16.0713V0.807335H173.639V16.5753C173.639 18.3753 173.999 19.6833 174.719 20.4993C175.463 21.2913 176.651 21.6873 178.283 21.6873C179.795 21.6873 180.899 21.2913 181.595 20.4993C182.291 19.6833 182.639 18.3753 182.639 16.5753V0.807335H189.335ZM222.542 0.807335V26.5833H216.17V20.7873C216.17 17.0673 216.278 12.4593 216.494 6.96334C215.582 10.8273 214.658 14.2353 213.722 17.1873L210.734 26.5833H205.586L202.562 17.4393C201.674 14.7753 200.738 11.2833 199.754 6.96334C199.97 11.8593 200.078 16.1793 200.078 19.9233V26.5833H193.706V0.807335H203.354L206.126 9.77134C206.942 12.3873 207.638 15.3753 208.214 18.7353C209.006 14.8953 209.738 11.8593 210.41 9.62734L213.038 0.807335H222.542Z" fill="#FC732F"/>
</svg>
